# xmcd
#
# Track frame offsets: 
#        150
#        30816
#        68718
#        104817
#        133163
#        153101
#        177728
#
# Disc length: 2747 seconds
#
# Revision: 0
# Processed by: cddbd v1.5.1PL0 Copyright (c) Steve Scherf et al.
# Submitted via: ExactAudioCopy v0.95a5
#
DISCID=5a0ab907
DTITLE=Ry Cooder \\ David Lindley - Live in Osaka D2
DYEAR=1979
DGENRE=R&B
TTITLE0=Ry Cooder \\ David Lindley - Travellin´ Man
TTITLE1=Ry Cooder \\ David Lindley - If Walls Could Talk
TTITLE2=Ry Cooder \\ David Lindley - How Can A Poor Man Stand Such Tim
TTITLE2=es And Live ?
TTITLE3=Ry Cooder \\ David Lindley - Jesus On The Main Line
TTITLE4=Ry Cooder \\ David Lindley - The Tattler
TTITLE5=Ry Cooder \\ David Lindley - Blue Suede Shoe
TTITLE6=Ry Cooder \\ David Lindley - Burgeois Blues
EXTD=
EXTT0=
EXTT1=
EXTT2=
EXTT3=
EXTT4=
EXTT5=
EXTT6=
PLAYORDER=
